<svg width="40" height="35" viewBox="0 0 40 35" fill="none" xmlns="http://www.w3.org/2000/svg">
<path fill-rule="evenodd" clip-rule="evenodd" d="M22.3021 34.9998C19.3144 35.0373 14.4783 28.1463 12.8322 26.2431C10.4324 23.4685 10.4503 23.4756 7.97841 20.7301C6.1482 18.6972 4.00018 16.5992 2.71848 14.2935C2.36464 13.6569 1.67375 11.9946 1.50042 11.5849C0.531997 9.29585 -0.591853 6.61852 0.362501 4.199C1.00765 2.56348 3.49427 2.24577 5.3409 2.26732C9.77962 2.31915 13.5575 4.58909 16.0563 7.38066C17.4251 8.90975 18.3088 10.6179 19.3278 12.3046C19.6043 12.7622 19.8978 13.2132 20.1813 13.6681C20.3087 13.8728 20.4261 14.0816 20.5605 14.2833C20.6477 14.4141 20.7312 14.5485 20.8456 14.6651C20.8924 14.7129 20.9896 14.8153 21.0347 14.7666C21.2382 14.5462 21.3269 14.2704 21.4469 14.0139C21.8959 13.0539 22.3653 11.6407 22.7415 10.7516C23.0407 10.0449 23.6172 8.9714 24.073 8.33079C24.6723 7.48883 25.279 6.64781 25.966 5.84975C26.6536 5.05082 27.4224 4.29774 28.1905 3.54709C28.5532 3.19265 28.9533 2.8632 29.3555 2.53719C31.101 1.12245 33.679 -0.500143 36.3492 0.14627C39.4507 0.897045 40.102 4.06253 39.9879 6.28213C39.9488 7.0414 39.8916 7.80186 39.7629 8.55482C38.5382 15.7203 33.9284 22.1656 29.0949 28.1369C28.4196 28.9713 24.1775 34.9759 22.3021 34.9998Z" fill="#91D18C"/>
</svg>

