<svg width="670" height="160" viewBox="0 0 670 160" fill="none" xmlns="http://www.w3.org/2000/svg">
<path d="M648.143 3.70012C641.333 7.94129 636.632 23.3811 637.671 30.1499C637.409 30.384 637.134 30.6436 636.846 30.9299C633.562 34.1913 621.302 45.3408 619.711 46.6541C617.322 48.6258 614.947 50.7443 612.593 52.8825C614.317 49.7976 615.701 46.4664 617.045 43.1036C620.561 34.3032 618.472 23.5882 610.978 14.21C606.832 9.02138 597.678 3.47968 594.252 10.4759C592.774 13.4959 593.038 18.291 593.258 22.2879C593.3 23.0564 593.341 23.7953 593.367 24.4865C593.809 36.0817 596.986 50.8588 602.024 62.3412C593.517 69.5007 583.361 73.7042 573.775 79.0835C568.599 81.7812 563.487 84.4459 558.217 86.7832C566.142 77.1781 573.648 54.0511 568.492 44.135C565.978 39.2995 562.486 34.6389 557.326 35.1512C553.335 35.5475 549.998 39.5874 548.241 43.0152C545.168 49.0112 544.217 56.6318 544.145 63.9217C544.057 72.8768 546.52 81.2633 551.038 89.6945C549.501 90.2544 547.943 90.7778 546.359 91.2582C538.599 93.6127 530.521 95.02 522.314 96.4499C520.165 96.8244 518.006 97.2005 515.842 97.5956C514.794 97.7868 513.749 97.9825 512.703 98.1765C508.232 99.0606 503.711 99.8551 499.127 100.368C506.475 96.2835 515.013 86.0601 515.144 75.2406C515.262 65.5474 506.118 57.7817 499.518 62.8213C490.092 70.0178 491.159 88.5607 492.449 100.951C483.276 101.77 474.407 103.117 465.473 104.881C462.471 105.474 459.134 106.002 455.692 106.546C454.502 106.733 453.313 106.922 452.125 107.114C452.986 106.284 453.829 105.339 454.599 104.475C458.183 100.459 462.867 97.3562 464.928 91.897C466.635 87.3767 467.238 81.5284 466.941 76.33C466.695 72.0311 464.563 66.8102 460.903 64.165C456.148 60.7277 451.116 62.8137 447.617 65.5741C438.243 72.9682 438.873 98.1982 442.973 108.775C439.688 109.469 436.576 110.275 433.855 111.269C420.781 116.048 405.424 121.672 394.514 126.73C393.336 127.629 400.113 140.542 402.675 139.561C404.019 138.831 405.282 138.146 406.471 137.501C416.653 131.98 421.478 129.364 426.193 126.261C433.787 121.265 446.305 116.68 456.343 113.736C461.209 120.791 465.468 128.122 469.689 135.609C474.667 144.439 485.932 163.695 496.706 158.039C500.342 156.13 503.001 152.278 503.737 147.762C504.875 140.791 503.813 135.639 498.796 129.813C494.2 124.476 484.45 119.51 478.506 116.741C476.327 115.726 474.075 114.909 471.822 114.092C469.558 113.271 467.292 112.449 465.097 111.425C465.959 111.228 466.759 111.056 467.486 110.913C477.4 108.955 487.195 107.526 497.4 106.771C502.501 106.394 507.471 105.547 512.34 104.65C515.8 109.978 522.154 119.498 526.307 124.154C526.566 124.444 526.838 124.752 527.124 125.074C533.399 132.148 545.828 146.16 552.761 137.235C554.57 134.906 555.283 131.584 555.006 128.254C554.632 123.75 551.943 120.677 549.079 117.404C548.676 116.943 548.269 116.478 547.865 116.005C544.499 112.064 540.694 108.322 536.343 105.94C533.233 104.236 529.982 103.116 526.722 102.066C534.115 100.768 541.597 99.3676 548.777 97.189C552.518 96.0541 556.156 94.6706 559.719 93.1361C560.65 95.3966 565.783 100.238 570.279 104.478C571.91 106.016 573.457 107.476 574.689 108.704C582.014 116.004 594.422 125.905 602.805 119.628C605.238 117.805 610.416 112.881 608.165 108.501C606.067 104.419 602.015 100.698 598.513 98.2064C588.457 91.0518 574.523 89.4722 567.069 89.7418C570.527 88.0515 573.931 86.2789 577.308 84.5204C581.495 82.3402 585.64 80.1816 589.796 78.2283C596.485 75.0844 602.095 70.8759 607.503 66.1787C609.307 64.612 611.128 62.8201 612.931 60.9502C613.597 63.7004 616.288 67.9981 617.526 69.9759C617.657 70.1853 617.772 70.3688 617.866 70.5216C619.945 73.8863 622.891 77.1747 625.807 79.6874C634.621 87.2839 645.356 86.7791 654.177 83.2276C657.178 82.0194 660.924 77.7969 660.682 73.7391C660.546 71.4606 659.161 69.5479 657.834 67.7146C657.763 67.6158 657.691 67.5173 657.62 67.4189C650.582 57.666 635.377 56.5575 623.947 55.7242C621.905 55.5754 619.983 55.4353 618.251 55.2563C621.259 51.9958 624.11 48.9435 626.624 46.8688C629.557 44.448 636.096 37.6675 639.676 33.1969C643.28 33.6797 653.902 27.7251 659.405 23.5237C659.799 23.2223 660.194 22.9256 660.585 22.6311C665.333 19.0583 669.66 15.8021 669.46 8.21183C669.269 0.943195 665.446 0.482406 659.871 0.339724C655.83 0.236307 651.376 1.68687 648.143 3.70012Z" fill="#3D5138"/>
<path d="M21.8569 3.70012C28.6668 7.94129 33.3682 23.3811 32.3287 30.1499C32.5909 30.384 32.866 30.6436 33.1542 30.9299C36.4377 34.1913 48.6984 45.3408 50.2895 46.6541C52.6783 48.6258 55.0534 50.7443 57.4066 52.8825C55.6827 49.7976 54.2992 46.4664 52.9555 43.1036C49.4387 34.3032 51.5282 23.5882 59.0218 14.21C63.1677 9.02138 72.3219 3.47968 75.7476 10.4759C77.2263 13.4959 76.9624 18.291 76.7424 22.2879C76.7001 23.0564 76.6594 23.7953 76.6331 24.4865C76.191 36.0817 73.0138 50.8588 67.9765 62.3412C76.4826 69.5007 86.6395 73.7042 96.2255 79.0835C101.401 81.7812 106.513 84.4459 111.783 86.7832C103.858 77.1781 96.3522 54.0511 101.508 44.135C104.022 39.2995 107.514 34.6389 112.674 35.1512C116.665 35.5475 120.002 39.5874 121.759 43.0152C124.832 49.0112 125.783 56.6318 125.855 63.9217C125.943 72.8768 123.48 81.2633 118.962 89.6945C120.499 90.2544 122.057 90.7778 123.641 91.2582C131.401 93.6127 139.479 95.02 147.686 96.4499C149.835 96.8244 151.994 97.2005 154.159 97.5956C155.206 97.7868 156.251 97.9825 157.297 98.1765C161.768 99.0606 166.289 99.8551 170.873 100.368C163.525 96.2835 154.987 86.0601 154.856 75.2406C154.738 65.5474 163.882 57.7817 170.483 62.8213C179.908 70.0178 178.841 88.5607 177.551 100.951C186.724 101.77 195.594 103.117 204.527 104.881C207.529 105.474 210.866 106.002 214.308 106.546C215.498 106.733 216.687 106.922 217.875 107.114C217.014 106.284 216.171 105.339 215.401 104.475C211.817 100.459 207.133 97.3562 205.072 91.897C203.365 87.3767 202.762 81.5284 203.059 76.33C203.305 72.0311 205.437 66.8102 209.097 64.165C213.852 60.7277 218.884 62.8137 222.383 65.5741C231.757 72.9682 231.127 98.1982 227.027 108.775C230.312 109.469 233.424 110.275 236.145 111.269C249.219 116.048 264.576 121.672 275.486 126.73C276.664 127.629 269.887 140.542 267.325 139.561C265.981 138.831 264.718 138.146 263.529 137.501C253.347 131.98 248.522 129.364 243.807 126.261C236.213 121.265 223.695 116.68 213.657 113.736C208.791 120.791 204.532 128.122 200.311 135.609C195.333 144.439 184.068 163.695 173.294 158.039C169.658 156.13 166.999 152.278 166.263 147.762C165.126 140.791 166.187 135.639 171.204 129.813C175.8 124.476 185.55 119.51 191.494 116.741C193.673 115.726 195.925 114.909 198.178 114.092C200.442 113.271 202.708 112.449 204.903 111.425C204.041 111.228 203.241 111.056 202.514 110.913C192.6 108.955 182.806 107.526 172.6 106.771C167.499 106.394 162.529 105.547 157.66 104.65C154.2 109.978 147.846 119.498 143.693 124.154C143.435 124.444 143.162 124.752 142.876 125.074C136.601 132.148 124.172 146.16 117.239 137.235C115.43 134.906 114.717 131.584 114.994 128.254C115.368 123.75 118.057 120.677 120.921 117.404C121.324 116.943 121.731 116.478 122.136 116.005C125.501 112.064 129.306 108.322 133.657 105.94C136.767 104.236 140.018 103.116 143.278 102.066C135.885 100.768 128.403 99.3676 121.223 97.189C117.482 96.0541 113.844 94.6706 110.281 93.1361C109.35 95.3966 104.217 100.238 99.7207 104.478C98.0899 106.016 96.5427 107.476 95.3106 108.704C87.986 116.004 75.578 125.905 67.1955 119.628C64.7621 117.805 59.5842 112.881 61.8351 108.501C63.933 104.419 67.9854 100.698 71.4869 98.2064C81.5432 91.0518 95.4774 89.4722 102.931 89.7418C99.4726 88.0515 96.0687 86.2789 92.6919 84.5204C88.5054 82.3402 84.3604 80.1816 80.2042 78.2283C73.515 75.0844 67.9053 70.8759 62.4972 66.1787C60.6934 64.612 58.8725 62.8201 57.0693 60.9502C56.4027 63.7004 53.7123 67.9981 52.4743 69.9759C52.3432 70.1853 52.2283 70.3688 52.1339 70.5216C50.0553 73.8863 47.1088 77.1747 44.1933 79.6874C35.379 87.2839 24.6444 86.7791 15.823 83.2276C12.822 82.0194 9.07653 77.7969 9.31811 73.7391C9.45376 71.4606 10.8386 69.5479 12.166 67.7146C12.2375 67.6158 12.3088 67.5173 12.3798 67.4189C19.4178 57.666 34.6233 56.5575 46.0533 55.7242C48.0952 55.5754 50.0166 55.4353 51.7495 55.2563C48.741 51.9958 45.8898 48.9435 43.3762 46.8688C40.4432 44.448 33.9038 37.6675 30.3244 33.1969C26.7197 33.6797 16.0985 27.7251 10.5955 23.5237C10.2007 23.2223 9.80646 22.9256 9.41506 22.6311C4.66715 19.0583 0.339933 15.8021 0.539715 8.21183C0.731031 0.943195 4.55402 0.482406 10.129 0.339724C14.1698 0.236307 18.6243 1.68687 21.8569 3.70012Z" fill="#3D5138"/>
<path fill-rule="evenodd" clip-rule="evenodd" d="M340.083 151C332.837 151.09 321.11 134.551 317.118 129.983C311.299 123.324 311.342 123.341 305.348 116.752C300.909 111.873 295.7 106.838 292.592 101.304C291.734 99.7766 290.059 95.7871 289.639 94.8038C287.29 89.31 284.565 82.8844 286.879 77.0776C288.444 73.1523 294.474 72.3898 298.952 72.4416C309.716 72.566 318.877 78.0138 324.937 84.7136C328.256 88.3834 330.399 92.483 332.87 96.531C333.54 97.6294 334.252 98.7116 334.94 99.8034C335.249 100.295 335.533 100.796 335.859 101.28C336.071 101.594 336.273 101.916 336.551 102.196C336.664 102.311 336.9 102.557 337.009 102.44C337.503 101.911 337.718 101.249 338.009 100.633C339.097 98.3292 340.236 94.9378 341.148 92.8039C341.874 91.1077 343.272 88.5314 344.377 86.9939C345.83 84.9732 347.302 82.9547 348.967 81.0394C350.635 79.122 352.499 77.3146 354.362 75.513C355.242 74.6624 356.212 73.8717 357.187 73.0892C361.42 69.6939 367.672 65.7997 374.147 67.351C381.668 69.1529 383.247 76.7501 382.971 82.0771C382.876 83.8994 382.737 85.7245 382.425 87.5316C379.455 104.729 368.276 120.197 356.555 134.529C354.917 136.531 344.63 150.942 340.083 151Z" fill="#F8D0C5"/>
</svg>
