<svg width="424" height="272" viewBox="0 0 424 272" fill="none" xmlns="http://www.w3.org/2000/svg">
<path d="M195.553 52.3901C210.926 34.7707 237.137 18.2349 263.984 8.71657C292.361 -1.34428 331.973 -2.03652 360.876 3.28306C399.866 10.4592 417.883 30.1427 423.342 58.175C426.432 74.0424 418.351 89.0105 405.094 101.848C369.506 136.311 302.771 143.478 260.366 172.466C238.184 187.63 231.408 207.597 219.936 226.459C214.521 235.362 208.857 240.486 196.968 246.367C185.326 252.127 174.076 257.495 161.101 261.794C113.82 277.458 6.30464 280.345 0.326954 231.827C-2.28575 210.62 10.9195 186.993 34.228 172.362C58.6025 157.062 98.407 158.989 127.593 150.16C152.72 142.56 163.115 127.053 168.652 110.135C175.042 90.6116 180.23 69.9511 195.553 52.3901Z" fill="#A98E5F" fill-opacity="0.22"/>
</svg>
