<svg width="346" height="323" viewBox="0 0 346 323" fill="none" xmlns="http://www.w3.org/2000/svg">
<path fill-rule="evenodd" clip-rule="evenodd" d="M224.893 24.4442C195.237 21.8892 178.551 20.6896 148.081 39.0148C89.1892 74.4358 38.9408 203.372 96.2061 275.072C126.454 312.942 159.075 315.517 196.054 322.267C215.555 325.829 256.815 315.828 274.345 304.853C295.228 291.78 313.672 280.328 327.645 251.756C385.167 134.127 295.396 24.4442 224.893 24.4442Z" fill="#F87C50" fill-opacity="0.26"/>
<path d="M229.471 7.48335C223.309 12.8551 218.829 26.6811 219.636 31.8582C219.397 32.1223 219.147 32.4106 218.884 32.7243C215.891 36.298 204.733 48.8107 203.287 50.3264C201.117 52.602 198.956 54.9925 196.815 57.3927C198.411 54.4065 199.707 51.3182 200.969 48.2157C204.271 40.0963 202.597 32.0277 196.07 26.5813C192.459 23.568 184.379 21.6975 181.191 28.3319C179.815 31.1957 179.965 34.9979 180.089 38.1672C180.113 38.7766 180.136 39.3625 180.147 39.9139C180.332 49.1642 182.904 60.2073 187.198 68.0559C179.468 76.2712 170.315 82.567 161.652 89.6508C156.978 93.3083 152.362 96.921 147.611 100.314C154.866 90.2868 161.991 69.4448 157.563 62.8965C155.404 59.7034 152.368 56.9305 147.748 58.8164C144.174 60.2751 141.119 64.4938 139.487 67.7666C136.633 73.4915 135.645 79.925 135.449 85.8405C135.208 93.1072 137.257 99.1864 141.143 104.716C139.759 105.607 138.357 106.474 136.933 107.314C129.956 111.431 122.712 114.873 115.353 118.37C113.425 119.286 111.489 120.206 109.548 121.143C108.608 121.596 107.671 122.052 106.732 122.508C102.721 124.497 98.6669 126.429 94.5614 128.151C101.201 122.753 109.016 112.051 109.328 103.264C109.609 95.3926 101.578 91.7205 95.5887 97.6783C87.0356 106.186 87.6541 120.876 88.583 130.527C80.3708 133.806 72.4208 137.425 64.4058 141.399C61.7127 142.734 58.7207 144.113 55.6351 145.534C54.5688 146.025 53.5028 146.517 52.4379 147.011C53.2216 146.095 53.9923 145.09 54.6963 144.172C57.971 139.902 62.2129 136.057 64.1535 131.055C65.7603 126.913 66.4055 122.011 66.2335 117.893C66.0913 114.487 64.2808 110.873 61.0583 109.777C56.8708 108.354 52.3367 111.476 49.1596 114.706C40.6492 123.359 40.7567 143.581 44.2288 150.965C41.281 152.462 38.4855 154.002 36.0358 155.582C24.2666 163.175 10.4421 172.102 0.600714 179.304C-0.467593 180.366 5.35465 188.876 7.6622 187.351C8.87641 186.378 10.017 185.464 11.0915 184.604C20.2898 177.235 24.6491 173.743 28.9185 169.89C35.7945 163.684 47.0637 156.407 56.0873 151.163C60.3078 155.48 63.9811 160.193 67.6179 165.044C71.9064 170.764 81.625 183.123 91.3557 175.476C94.6393 172.896 97.0846 169.023 97.8244 165.161C98.9666 159.199 98.1111 155.336 93.7331 152.056C89.7226 149.051 81.0995 147.816 75.8381 147.272C73.9092 147.073 71.9118 147.055 69.9133 147.037C67.9045 147.018 65.8944 147 63.9516 146.798C64.7256 146.392 65.4435 146.026 66.0959 145.702C74.9906 141.292 83.7687 137.342 92.9024 133.821C97.4671 132.062 101.924 129.96 106.291 127.846C109.287 131.167 114.793 137.053 118.419 139.634C118.645 139.795 118.884 139.966 119.133 140.145C124.613 144.076 135.466 151.862 141.823 142.667C143.482 140.268 144.179 137.378 143.992 134.764C143.739 131.229 141.391 129.511 138.891 127.681C138.539 127.424 138.184 127.164 137.831 126.896C134.895 124.67 131.562 122.729 127.717 122.043C124.969 121.553 122.084 121.574 119.19 121.654C125.82 118.497 132.531 115.23 138.987 111.421C142.35 109.436 145.626 107.28 148.838 105.023C149.629 106.585 154.128 109.036 158.07 111.183C159.499 111.962 160.855 112.7 161.934 113.342C168.348 117.156 179.257 121.624 186.861 114.157C189.068 111.99 193.784 106.531 191.852 103.631C190.051 100.928 186.497 99.0748 183.413 98.0589C174.556 95.1415 162.133 97.8381 155.467 100.182C158.588 97.8287 161.662 95.4246 164.711 93.0395C168.492 90.0825 172.235 87.1549 175.984 84.39C182.019 79.94 187.108 74.937 192.025 69.5964C193.666 67.815 195.325 65.8467 196.97 63.8204C197.516 65.8541 199.843 68.5622 200.913 69.8084C201.027 69.9404 201.126 70.0559 201.208 70.1526C203.004 72.2806 205.578 74.0994 208.138 75.2998C215.877 78.9288 225.479 75.4591 233.426 70.0715C236.13 68.2386 239.553 63.7559 239.41 60.5435C239.33 58.7397 238.127 57.588 236.974 56.4841C236.912 56.4246 236.85 56.3653 236.789 56.306C230.676 50.4265 217.108 53.8667 206.909 56.4527C205.087 56.9147 203.372 57.3494 201.827 57.6989C204.574 54.2043 207.178 50.9229 209.461 48.5284C212.126 45.7343 218.092 38.3863 221.372 33.7504C224.584 33.1128 234.183 25.2686 239.176 20.3018C239.535 19.9454 239.892 19.5931 240.247 19.2433C244.555 15.0001 248.481 11.1329 248.439 5.05212C248.4 -0.771009 244.992 -0.0533225 240.012 1.42127C236.403 2.49004 232.396 4.93343 229.471 7.48335Z" fill="#3D5138" fill-opacity="0.58"/>
</svg>
