<svg width="328" height="140" viewBox="0 0 328 140" fill="none" xmlns="http://www.w3.org/2000/svg">
<path d="M47.1098 20.9568C54.1756 14.236 62.4458 10.2735 71.8074 6.93632C100.067 -3.13759 112.596 -1.01014 130.805 13.654C143.318 23.7318 174.656 28.6107 189.653 26.4797C201.478 24.7992 220.45 5.60195 232.259 7.6496C239.481 8.90194 243.905 11.3646 249.956 15.1703C258.278 20.404 256.92 29.8213 254.068 37.451C249.665 49.2322 240.649 61.9081 243.355 75.4642C244.802 82.7085 253.798 85.0265 260.579 84.4856C269.478 83.7757 279.065 78.1971 286.817 74.5413C295.266 70.5574 304.817 68.5824 313.773 73.4276C321.379 77.5421 328.471 81.8834 326.909 90.8918C325.405 99.5681 318.813 109.693 312.016 115.665C304.278 122.463 297.013 130.426 287.049 134.635C277.722 138.575 268.282 139.301 255.946 138.987C235.403 138.463 225.018 130.276 205.652 123.44C174.336 112.385 154.845 94.8431 127.609 90.1204C118.176 88.4848 109.2 87.4843 99.6646 87.0559C91.1459 86.6732 79.616 88.3502 71.7687 91.123C63.8141 93.9337 55.0225 96.2612 47.748 100.314C36.5345 106.562 23.8626 109.675 10.9078 104.413C-6.5022 97.342 2.01843 82.1022 6.74316 69.163C10.047 60.1152 16.6699 53.6713 22.981 46.2061C30.3723 37.4632 38.7806 28.8794 47.1098 20.9568Z" fill="#B3BDB5" fill-opacity="0.23"/>
</svg>
