<svg width="841" height="314" viewBox="0 0 841 314" fill="none" xmlns="http://www.w3.org/2000/svg">
<path fill-rule="evenodd" clip-rule="evenodd" d="M183.658 38.3547C215.428 25.0086 286.906 11.1677 302.296 9.87391C308.988 9.31189 323.154 8.09577 337.511 6.8633C352.027 5.61711 366.739 4.35421 374.114 3.7339C419.234 -0.0565006 473.455 -1.61326 518.791 2.19577C530.647 3.19209 542.371 4.00139 553.953 4.80094C594.786 7.61969 633.86 10.3171 670.791 20.6592C717.358 33.702 735.701 50.2413 756.66 69.1403C761.363 73.3804 766.197 77.7393 771.511 82.2041C843.615 142.782 893.988 244.409 742.21 292.229C699.055 305.825 651.017 306.149 602.564 306.475C579.457 306.631 556.254 306.787 533.442 308.384C454.054 313.942 351.096 316.118 269.728 311.462C203.936 307.697 114.919 280.439 49.9703 249.147C27.4123 238.278 15.0184 217.386 6.90229 203.706C6.60204 203.199 6.30764 202.703 6.0188 202.218C-28.2298 144.67 90.7778 77.3704 183.658 38.3547Z" fill="#FFB6B6" fill-opacity="0.44"/>
</svg>
